<?xml version="1.0" standalone="no"?>
<!DOCTYPE svg PUBLIC "-//W3C//DTD SVG 20010904//EN"
 "http://www.w3.org/TR/2001/REC-SVG-20010904/DTD/svg10.dtd">
<svg version="1.0" xmlns="http://www.w3.org/2000/svg"
 width="312.000000pt" height="312.000000pt" viewBox="0 0 312.000000 312.000000"
 preserveAspectRatio="xMidYMid meet">
<metadata>
Created by potrace 1.14, written by Peter Selinger 2001-2017
</metadata>
<g transform="translate(0.000000,312.000000) scale(0.100000,-0.100000)"
fill="#000000" stroke="none">
<path d="M1842 3095 c-119 -33 -248 -123 -302 -210 l-21 -34 -36 25 c-97 66
-269 68 -366 3 -111 -73 -166 -232 -138 -395 25 -139 118 -324 256 -509 61
-82 270 -303 279 -295 2 3 7 37 10 75 3 39 8 81 11 95 3 14 10 50 15 80 25
126 100 320 164 425 18 29 22 44 15 57 -18 33 1 89 36 108 36 19 75 15 101
-11 56 -57 20 -149 -60 -149 -19 0 -31 -11 -51 -45 -79 -135 -155 -368 -171
-524 -3 -36 -8 -78 -9 -93 -2 -16 -1 -28 3 -28 3 0 130 93 281 208 449 337
563 472 587 691 22 208 -118 436 -314 512 -73 28 -214 35 -290 14z"/>
<path d="M381 2424 c-142 -38 -267 -142 -329 -272 -34 -71 -37 -85 -39 -177
-2 -113 17 -190 68 -276 37 -63 102 -133 149 -161 19 -12 37 -23 39 -24 1 -2
-8 -18 -22 -36 -54 -71 -69 -211 -34 -313 56 -165 281 -243 502 -174 134 41
338 158 485 279 73 59 244 229 237 236 -2 2 -30 6 -62 9 -33 2 -70 7 -84 9
-14 3 -42 8 -61 11 -128 20 -291 77 -425 149 -65 35 -85 41 -108 35 -105 -29
-155 127 -52 161 58 19 104 -12 114 -78 6 -35 11 -39 101 -84 147 -75 346
-132 500 -144 36 -3 71 -7 78 -9 6 -3 12 -1 12 2 0 10 -400 538 -452 598 -200
228 -407 316 -617 259z"/>
<path d="M2440 2129 c-136 -35 -332 -144 -495 -274 -76 -60 -255 -234 -255
-247 0 -4 12 -8 28 -9 104 -3 271 -36 386 -76 102 -35 248 -104 278 -130 13
-11 21 -12 37 -4 72 39 153 -59 105 -127 -48 -70 -154 -34 -154 51 0 12 -10
29 -22 36 -59 37 -151 81 -228 109 -129 47 -192 62 -335 77 -27 3 -60 8 -72
10 -12 3 -24 1 -27 -4 -6 -9 341 -475 433 -580 185 -213 333 -295 519 -287
100 5 175 28 254 79 142 92 218 222 223 382 5 146 -47 279 -151 383 -34 34
-66 62 -70 62 -5 0 -15 4 -23 9 -11 7 -10 14 8 39 50 70 69 204 43 297 -25 90
-100 164 -202 201 -70 25 -192 26 -280 3z"/>
<path d="M1499 1408 c-24 -18 -46 -35 -49 -38 -3 -3 -75 -57 -160 -120 -85
-63 -162 -120 -170 -127 -274 -216 -357 -309 -413 -463 -74 -205 -1 -433 185
-573 199 -149 538 -89 680 121 17 26 33 49 35 51 1 2 11 -3 21 -12 56 -51 177
-73 286 -54 98 18 186 103 222 217 21 63 23 190 5 260 -50 193 -215 455 -418
659 -56 58 -105 102 -108 100 -2 -3 -7 -27 -9 -55 -12 -110 -19 -153 -42 -244
-31 -123 -83 -257 -133 -343 -31 -52 -38 -73 -32 -90 18 -48 -3 -91 -54 -113
-33 -14 -65 -3 -98 33 -39 44 8 133 71 133 31 0 40 11 90 115 62 126 111 281
128 403 14 100 20 172 14 172 -3 0 -26 -14 -51 -32z"/>
</g>
</svg>
